<?xml version="1.0" standalone="no"?>
<!DOCTYPE svg PUBLIC "-//W3C//DTD SVG 20010904//EN"
 "http://www.w3.org/TR/2001/REC-SVG-20010904/DTD/svg10.dtd">
<svg version="1.0" xmlns="http://www.w3.org/2000/svg"
 width="951.000000pt" height="540.000000pt" viewBox="0 0 951.000000 540.000000"
 preserveAspectRatio="xMidYMid meet">

<g transform="translate(0.000000,540.000000) scale(0.100000,-0.100000)"
fill="#000000" stroke="none">
<path d="M8588 4303 c7 -3 16 -2 19 1 4 3 -2 6 -13 5 -11 0 -14 -3 -6 -6z"/>
<path d="M6802 4160 c7 -10 14 -18 15 -16 6 6 -9 36 -18 36 -5 0 -4 -9 3 -20z"/>
<path d="M1845 4151 c-3 -5 -1 -12 5 -16 5 -3 10 1 10 9 0 18 -6 21 -15 7z"/>
<path d="M4700 3499 c0 -5 5 -7 10 -4 6 3 10 8 10 11 0 2 -4 4 -10 4 -5 0 -10
-5 -10 -11z"/>
<path d="M611 3234 c0 -11 3 -14 6 -6 3 7 2 16 -1 19 -3 4 -6 -2 -5 -13z"/>
<path d="M4435 2710 c11 -5 29 -9 40 -9 l20 0 -20 9 c-11 5 -29 9 -40 9 l-20
0 20 -9z"/>
<path d="M5115 2369 c-4 -6 -5 -12 -2 -15 2 -3 7 2 10 11 7 17 1 20 -8 4z"/>
<path d="M5028 2263 c7 -3 16 -2 19 1 4 3 -2 6 -13 5 -11 0 -14 -3 -6 -6z"/>
<path d="M5145 2260 c-3 -6 1 -7 9 -4 18 7 21 14 7 14 -6 0 -13 -4 -16 -10z"/>
<path d="M4313 2195 c-3 -9 -3 -18 -1 -21 3 -3 8 4 11 16 6 23 -1 27 -10 5z"/>
<path d="M5133 2203 c9 -2 23 -2 30 0 6 3 -1 5 -18 5 -16 0 -22 -2 -12 -5z"/>
<path d="M4975 2180 c4 -6 11 -8 16 -5 14 9 11 15 -7 15 -8 0 -12 -5 -9 -10z"/>
<path d="M5093 2143 c15 -2 39 -2 55 0 15 2 2 4 -28 4 -30 0 -43 -2 -27 -4z"/>
<path d="M4955 2123 c-4 -13 -3 -14 9 -4 8 7 19 11 23 8 4 -2 17 -1 28 3 15 6
11 8 -17 8 -24 0 -39 -5 -43 -15z"/>
<path d="M4887 2114 c6 -15 23 -19 23 -5 0 5 -7 11 -14 14 -10 4 -13 1 -9 -9z"/>
<path d="M4528 2103 c7 -3 16 -2 19 1 4 3 -2 6 -13 5 -11 0 -14 -3 -6 -6z"/>
<path d="M4816 2093 c-6 -14 -5 -15 5 -6 7 7 10 15 7 18 -3 3 -9 -2 -12 -12z"/>
<path d="M4818 2033 c7 -3 16 -2 19 1 4 3 -2 6 -13 5 -11 0 -14 -3 -6 -6z"/>
<path d="M4868 1993 c7 -3 16 -2 19 1 4 3 -2 6 -13 5 -11 0 -14 -3 -6 -6z"/>
<path d="M4295 1950 c3 -5 8 -10 11 -10 2 0 4 5 4 10 0 6 -5 10 -11 10 -5 0
-7 -4 -4 -10z"/>
<path d="M4340 1936 c0 -2 7 -6 15 -10 8 -3 15 -1 15 4 0 6 -7 10 -15 10 -8 0
-15 -2 -15 -4z"/>
<path d="M4200 1879 c0 -5 5 -7 10 -4 6 3 10 8 10 11 0 2 -4 4 -10 4 -5 0 -10
-5 -10 -11z"/>
<path d="M5606 1447 c3 -10 9 -15 12 -12 3 3 0 11 -7 18 -10 9 -11 8 -5 -6z"/>
<path d="M2226 1435 c10 -8 23 -15 28 -15 6 0 1 7 -10 15 -10 8 -23 15 -28 15
-6 0 -1 -7 10 -15z"/>
<path d="M3100 1446 c0 -2 9 -6 20 -9 11 -3 18 -1 14 4 -5 9 -34 13 -34 5z"/>
<path d="M6245 1370 c-4 -17 -4 -34 -1 -37 3 -4 6 5 7 18 l1 24 7 -25 c7 -24
7 -24 13 -4 3 11 0 28 -7 38 -12 16 -14 14 -20 -14z"/>
<path d="M7961 1374 c0 -11 3 -14 6 -6 3 7 2 16 -1 19 -3 4 -6 -2 -5 -13z"/>
<path d="M7240 1293 c0 -43 5 -41 13 5 4 18 2 32 -3 32 -6 0 -10 -16 -10 -37z"/>
<path d="M3422 1290 c0 -19 2 -27 5 -17 2 9 2 25 0 35 -3 9 -5 1 -5 -18z"/>
<path d="M6471 1289 c-6 -18 -11 -37 -10 -43 0 -6 7 7 15 28 8 22 12 41 10 43
-2 2 -9 -10 -15 -28z"/>
<path d="M6250 1294 c0 -8 5 -12 10 -9 6 4 8 11 5 16 -9 14 -15 11 -15 -7z"/>
<path d="M7542 1285 c0 -16 2 -22 5 -12 2 9 2 23 0 30 -3 6 -5 -1 -5 -18z"/>
<path d="M3373 1230 c0 -30 2 -43 4 -27 2 15 2 39 0 55 -2 15 -4 2 -4 -28z"/>
<path d="M6481 1253 c-1 -6 -4 -20 -7 -30 -5 -17 -5 -17 6 0 6 10 9 23 6 30
-3 9 -5 9 -5 0z"/>
<path d="M7543 1205 c0 -22 2 -30 4 -17 2 12 2 30 0 40 -3 9 -5 -1 -4 -23z"/>
<path d="M7241 1178 c-1 -27 3 -48 7 -48 4 0 6 17 4 38 -5 58 -10 62 -11 10z"/>
<path d="M3371 1154 c0 -11 3 -14 6 -6 3 7 2 16 -1 19 -3 4 -6 -2 -5 -13z"/>
<path d="M4121 1154 c0 -11 3 -14 6 -6 3 7 2 16 -1 19 -3 4 -6 -2 -5 -13z"/>
<path d="M4645 1060 c3 -5 8 -10 11 -10 2 0 4 5 4 10 0 6 -5 10 -11 10 -5 0
-7 -4 -4 -10z"/>
</g>
</svg>
